<svg width="116" height="55" viewBox="0 0 464 242" xmlns="http://www.w3.org/2000/svg"><path d="M384.393 62.4c5.364 0 8.368 3.22 8.368 8.798v42.7c0 11.802 7.296 20.385 18.454 20.385 12.23 0 19.74-9.012 19.74-21.028V72.7c0-5.364 3.22-8.583 8.798-8.583h15.664c5.579 0 8.583 3.219 8.583 8.583v86.045c0 35.19-24.462 53.43-59.008 53.43-21.458 0-37.55-7.296-48.28-18.24-2.145-2.145-3.433-4.291-.429-8.154l7.94-9.655c2.145-2.36 4.72-3.434 8.368-.215 6.652 6.437 19.741 12.874 32.83 12.874 15.45 0 28.753-7.939 28.753-23.817v-17.166c-6.652 8.368-16.951 14.162-30.684 14.162-24.676 0-42.057-17.166-42.057-42.272l-.429-23.817v-6.009l-9.656-1.072c-6.866-1.073-8.583-4.077-8.583-8.583v-9.013c0-5.793 3.004-8.797 8.583-8.797zm-212-.428c15.449 0 28.538 7.08 37.121 17.595v-7.94c0-5.578 3.219-8.582 8.583-8.582h9.012c5.58 0 8.583 3.004 8.583 8.583v91.838c0 5.364-3.004 8.583-8.583 8.583h-9.012c-5.364 0-8.368-3.004-8.583-7.94v-7.939c-7.94 11.158-20.814 18.668-37.121 18.668-30.9 0-53.43-24.461-53.43-56.433s22.53-56.433 53.43-56.433zM59.097 30c18.024 0 34.117 5.794 45.275 15.235 4.721 3.862 6.008 8.154 2.36 12.445l-6.651 8.154c-3.648 4.292-7.94 4.72-12.446 1.287C80.34 60.9 70.684 56.178 59.741 56.178c-11.373 0-18.668 5.58-18.668 13.09 0 9.226 10.514 13.732 22.1 17.594 23.39 7.51 49.997 15.45 49.997 45.49 0 27.251-24.89 42.272-54.288 42.272-22.53 0-42.485-7.725-54.93-20.17-4.507-4.077-5.365-8.369-1.503-12.66l6.867-8.369c3.862-4.291 7.939-4.935 12.445-1.287 8.368 8.154 22.53 14.805 35.19 14.805 13.09 0 22.101-6.008 22.101-14.376 0-11.373-12.874-13.304-28.109-18.239C30.13 107.891 6.955 96.733 6.955 70.769 6.955 46.737 28.198 30 59.097 30zm254.7 33.688l10.3.215c5.364 0 8.798 3.004 8.798 8.368v7.296c0 5.579-3.434 8.583-8.798 8.583h-10.3c-17.595 0-26.607 9.441-26.607 29.182v46.134c0 5.364-3.004 8.583-8.583 8.583h-15.664c-5.364 0-8.583-3.219-8.583-8.583v-90.98c0-5.365 3.219-8.583 8.583-8.583h9.87c5.58 0 8.584 3.218 8.584 8.583v12.016c7.51-13.947 18.668-20.814 32.4-20.814zm-136.04 26.178c-15.45 0-26.607 12.446-26.607 28.539 0 16.308 11.158 28.538 26.607 28.538 15.02 0 26.607-12.445 26.607-28.538 0-16.308-11.158-28.539-26.607-28.539z" fill="#FFF" fill-rule="nonzero"/></svg>