<svg width="116" height="55" viewBox="0 0 464 242" xmlns="http://www.w3.org/2000/svg"><path d="M364.712 146c10.563-.326 20.638-4.396 27.3-12.374C398.837 141.93 410.375 146 424.35 146c22.1 0 39.65-14.328 39.65-40.216V70.126c0-4.233-2.438-6.512-6.663-6.512h-24.7c-4.387 0-6.825 2.116-6.825 6.512v6.839c0 3.419 1.3 5.698 6.825 6.513l6.338.814v19.05c0 16.933-8.45 22.794-18.525 22.794-13.65 0-20.15-8.14-20.15-22.795l-.163-.162V79.407c0-4.07-2.274-6.513-6.5-6.513h-11.862c-4.225 0-6.662 2.443-6.662 6.513V96.34l.162 8.955c0 16.12-7.15 20.678-14.95 20.841-12.837-.326-18.525-8.466-18.525-22.795V70.126c0-4.233-2.275-6.512-6.663-6.512h-24.7c-4.387 0-6.662 2.116-6.662 6.512v6.839c0 3.419 1.3 5.698 6.663 6.513l6.337.814v20.84c0 13.84-8.125 19.702-19.012 19.702-23.888 0-28.438-10.095-28.438-35.332v-70.99c0-4.233-2.275-6.512-6.5-6.512h-26c-4.387 0-6.825 2.117-6.825 6.513v6.838c0 3.42 1.3 5.699 6.825 6.513l7.638.814v53.73c0 42.17 11.212 59.592 53.462 59.592 16.575 0 28.438-4.07 35.587-12.049 6.5 7.816 17.226 11.723 29.9 12.049h1.3zM223 148.235V69.469c0-4.205-2.262-6.469-6.625-6.469h-25.692c-4.363 0-6.787 2.103-6.787 6.47v6.792c0 3.397 1.293 5.661 6.787 6.47l7.433.808v4.529l.161 56.931c0 17.306-4.847 27.819-23.268 25.07-3.232-.324-5.009-.163-5.009 3.072v10.19c0 2.91 1.131 6.307 5.01 6.954 23.106 3.72 47.99-6.631 47.99-42.051zM89.689 192c54.118 0 73.665-14.747 73.665-43.756 0-36.95-63.165-27.226-63.165-50.563 0-8.427 6.624-15.072 17.77-15.234 11.955-.162 25.848 2.431 41.195 11.02 2.907 1.62 4.846.324 4.846-3.24V79.043c0-3.08-1.454-4.862-5.008-6.969C148.007 65.593 135.245 63 118.282 63 92.92 63 75.957 75.803 75.957 97.519c0 45.215 63.165 26.578 63.165 54.452 0 11.182-7.593 18.8-49.433 18.8-42.81 0-51.372-17.828-51.372-38.41v-27.55c0-4.375-2.261-6.644-6.462-6.644l-24.232-.162c-4.361 0-6.623 2.269-6.623 6.482v6.969c0 3.241 1.292 5.996 6.623 6.32l6.3.325v14.26c0 33.385 16.64 59.639 75.766 59.639zM77.5 231c6.896 0 10.5-3.604 10.5-10.5 0-6.739-3.604-10.5-10.5-10.5S67 213.761 67 220.5c0 6.896 3.604 10.5 10.5 10.5zm28 0c6.896 0 10.5-3.604 10.5-10.5 0-6.739-3.604-10.5-10.5-10.5-6.739 0-10.5 3.761-10.5 10.5 0 6.896 3.761 10.5 10.5 10.5z" fill="#FFF" fill-rule="nonzero"/></svg>